<svg id="Layer_1" enable-background="new 0 0 511 511" height="512" viewBox="0 0 511 511" width="512" xmlns="http://www.w3.org/2000/svg"><path d="m256.384 471.278h-1.768c-16.261 0-29.566-13.305-29.566-29.566v-1.768c0-16.261 13.305-29.566 29.566-29.566h1.768c16.261 0 29.566 13.305 29.566 29.566v1.768c0 16.261-13.305 29.566-29.566 29.566z" fill="#343941"/><path d="m413.07 411.037h-315.14c-33.298 0-60.541-27.244-60.541-60.541v-242.782c0-33.298 27.244-60.541 60.541-60.541h315.14c33.298 0 60.541 27.244 60.541 60.541v242.782c0 33.297-27.244 60.541-60.541 60.541z" fill="#65cb74"/><path d="m99.74 47.172c-34.293 0-62.352 28.058-62.352 62.351v239.161c0 34.293 28.058 62.352 62.352 62.352h166.197c-49.039-30.942-89.909-74.939-116.225-126.641-36.899-72.493-44.727-159.201-21.86-237.223h-28.112z" fill="#03be79"/><path d="m473.495 424.473h-435.99c-20.628 0-37.505-16.877-37.505-37.504v-2.243c0-20.628 16.877-37.505 37.505-37.505h435.991c20.628 0 37.505 16.877 37.505 37.505v2.243c-.001 20.627-16.878 37.504-37.506 37.504z" fill="#4b555f"/><g fill="#fff"><path d="m408.527 347.237h-112.644c-15.871 0-28.856-12.985-28.856-28.856v-1.726c0-15.871 12.985-28.856 28.856-28.856h112.644c15.871 0 28.856 12.985 28.856 28.856v1.726c0 15.871-12.986 28.856-28.856 28.856z"/><path d="m336.213 206.248c-4.145 0-7.505-3.36-7.505-7.505v-12.459c0-4.145 3.36-7.505 7.505-7.505s7.505 3.36 7.505 7.505v12.459c0 4.145-3.36 7.505-7.505 7.505z"/><path d="m174.787 206.248c-4.145 0-7.505-3.36-7.505-7.505v-12.459c0-4.145 3.36-7.505 7.505-7.505s7.505 3.36 7.505 7.505v12.459c.001 4.145-3.359 7.505-7.505 7.505z"/><path d="m255.5 214.106c-9.714 0-19.427-3.143-27.533-9.43-3.276-2.54-3.871-7.255-1.33-10.53 2.539-3.276 7.255-3.871 10.53-1.331 10.795 8.373 25.871 8.373 36.666 0 3.274-2.54 7.99-1.945 10.53 1.331 2.541 3.275 1.946 7.99-1.33 10.53-8.106 6.287-17.819 9.43-27.533 9.43z"/></g><path d="m0 384.752v2.191c0 20.642 16.889 37.53 37.531 37.53h76.403c-21.314-19.722-34.485-48.216-35.417-77.252h-40.986c-20.642.001-37.531 16.889-37.531 37.531z" fill="#343941"/><path d="m473.495 116.974h-435.99c-20.628 0-37.505-16.877-37.505-37.505v-2.243c0-20.627 16.877-37.505 37.505-37.505h435.991c20.628 0 37.505 16.877 37.505 37.505v2.243c-.001 20.628-16.878 37.505-37.506 37.505z" fill="#4b555f"/><path d="m0 77.253v2.191c0 20.642 16.889 37.53 37.531 37.53h46.491c-21.315-19.723-26.124-48.216-27.057-77.252h-19.434c-20.642 0-37.531 16.889-37.531 37.531z" fill="#343941"/><path d="m362.3 323.504c-12.259-1.546-24.758-3.655-35.69-9.739-9.916-5.52-18.251-15.14-20.557-25.965h-10.149c-15.882 0-28.876 12.994-28.876 28.876v1.686c0 15.882 12.994 28.876 28.876 28.876h112.604c13.536 0 24.968-9.442 28.052-22.064-26.841.66-57.86.398-74.26-1.67z" fill="#d7f3ff"/></svg>