<svg xmlns="http://www.w3.org/2000/svg" height="512pt" version="1.1" viewBox="-4 0 512 512.00002" width="512pt">
<g id="surface1">
<path d="M 425.621094 468.515625 L 10.457031 468.515625 C 4.683594 468.515625 0 463.835938 0 458.058594 L 0 49.109375 C 0 43.335938 4.679688 38.652344 10.457031 38.652344 L 425.621094 38.652344 C 431.394531 38.652344 436.078125 43.335938 436.078125 49.109375 L 436.078125 458.0625 C 436.078125 463.835938 431.394531 468.515625 425.621094 468.515625 Z M 425.621094 468.515625 " style=" stroke:none;fill-rule:nonzero;fill:rgb(80.392157%,83.921569%,87.45098%);fill-opacity:1;" />
<path d="M 425.621094 38.652344 L 382.675781 38.652344 L 382.675781 468.515625 L 425.621094 468.515625 C 431.394531 468.515625 436.078125 463.835938 436.078125 458.0625 L 436.078125 49.109375 C 436.078125 43.335938 431.394531 38.652344 425.621094 38.652344 Z M 425.621094 38.652344 " style=" stroke:none;fill-rule:nonzero;fill:rgb(68.235294%,73.72549%,76.862745%);fill-opacity:1;" />
<path d="M 53.402344 405.855469 L 53.402344 125.527344 L 382.675781 125.527344 L 382.675781 405.855469 C 382.675781 410.945312 378.546875 415.070312 373.457031 415.070312 L 62.621094 415.070312 C 57.527344 415.074219 53.402344 410.945312 53.402344 405.855469 Z M 53.402344 405.855469 " style=" stroke:none;fill-rule:nonzero;fill:rgb(94.901961%,94.901961%,94.901961%);fill-opacity:1;" />
<path d="M 329.273438 125.527344 L 329.273438 405.855469 C 329.273438 410.945312 325.144531 415.074219 320.054688 415.074219 L 373.457031 415.074219 C 378.550781 415.074219 382.675781 410.945312 382.675781 405.855469 L 382.675781 125.527344 Z M 329.273438 125.527344 " style=" stroke:none;fill-rule:nonzero;fill:rgb(85.882353%,85.098039%,81.960784%);fill-opacity:1;" />
<path d="M 425.621094 38.652344 L 10.457031 38.652344 C 4.683594 38.652344 0 43.335938 0 49.109375 L 0 125.527344 L 436.078125 125.527344 L 436.078125 49.109375 C 436.078125 43.335938 431.394531 38.652344 425.621094 38.652344 Z M 425.621094 38.652344 " style=" stroke:none;fill-rule:nonzero;fill:rgb(93.333333%,33.72549%,27.45098%);fill-opacity:1;" />
<path d="M 425.621094 38.65625 L 382.675781 38.65625 L 382.675781 125.53125 L 436.078125 125.53125 L 436.078125 49.109375 C 436.078125 43.335938 431.394531 38.65625 425.621094 38.65625 Z M 425.621094 38.65625 " style=" stroke:none;fill-rule:nonzero;fill:rgb(84.705882%,24.313725%,22.745098%);fill-opacity:1;" />
<path d="M 73.597656 77.308594 C 61.570312 77.308594 51.824219 67.5625 51.824219 55.539062 L 51.824219 21.769531 C 51.824219 9.746094 61.574219 0 73.597656 0 C 85.621094 0 95.367188 9.746094 95.367188 21.769531 L 95.367188 55.539062 C 95.367188 67.5625 85.621094 77.308594 73.597656 77.308594 Z M 73.597656 77.308594 " style=" stroke:none;fill-rule:nonzero;fill:rgb(96.078431%,70.980392%,33.72549%);fill-opacity:1;" />
<path d="M 169.890625 77.308594 C 157.867188 77.308594 148.121094 67.5625 148.121094 55.539062 L 148.121094 21.769531 C 148.121094 9.746094 157.867188 0 169.890625 0 C 181.914062 0 191.660156 9.746094 191.660156 21.769531 L 191.660156 55.539062 C 191.660156 67.5625 181.914062 77.308594 169.890625 77.308594 Z M 169.890625 77.308594 " style=" stroke:none;fill-rule:nonzero;fill:rgb(96.078431%,70.980392%,33.72549%);fill-opacity:1;" />
<path d="M 266.1875 77.308594 C 254.160156 77.308594 244.414062 67.5625 244.414062 55.539062 L 244.414062 21.769531 C 244.414062 9.746094 254.164062 0 266.1875 0 C 278.210938 0 287.957031 9.746094 287.957031 21.769531 L 287.957031 55.539062 C 287.957031 67.5625 278.210938 77.308594 266.1875 77.308594 Z M 266.1875 77.308594 " style=" stroke:none;fill-rule:nonzero;fill:rgb(96.078431%,70.980392%,33.72549%);fill-opacity:1;" />
<path d="M 362.480469 77.308594 C 350.457031 77.308594 340.710938 67.5625 340.710938 55.539062 L 340.710938 21.769531 C 340.710938 9.746094 350.457031 0 362.480469 0 C 374.503906 0 384.253906 9.746094 384.253906 21.769531 L 384.253906 55.539062 C 384.253906 67.5625 374.503906 77.308594 362.480469 77.308594 Z M 362.480469 77.308594 " style=" stroke:none;fill-rule:nonzero;fill:rgb(96.078431%,70.980392%,33.72549%);fill-opacity:1;" />
<path d="M 182.84375 307.414062 L 182.84375 302.835938 C 182.84375 281.859375 170.066406 273.421875 150.539062 273.421875 C 145.476562 273.421875 143.546875 269.324219 143.546875 264.984375 C 143.546875 260.886719 145.476562 256.546875 150.539062 256.546875 C 167.65625 256.546875 178.503906 250.757812 178.503906 227.613281 C 178.503906 208.085938 169.585938 199.40625 151.503906 199.40625 C 128.839844 199.40625 123.296875 212.425781 123.296875 222.550781 C 123.296875 227.855469 120.644531 231.472656 113.652344 231.472656 C 104.972656 231.472656 103.046875 229.0625 103.046875 221.105469 C 103.046875 206.640625 112.929688 181.328125 151.984375 181.328125 C 178.988281 181.328125 198.035156 192.65625 198.035156 224 C 198.035156 244.972656 189.835938 259.199219 178.507812 264.503906 C 192.730469 270.289062 203.097656 281.859375 203.097656 302.835938 L 203.097656 307.414062 C 203.097656 345.023438 179.46875 359.007812 150.539062 359.007812 C 114.859375 359.007812 99.1875 336.347656 99.1875 318.023438 C 99.1875 310.550781 101.839844 308.621094 108.589844 308.621094 C 116.785156 308.621094 118.957031 311.515625 118.957031 316.578125 C 118.957031 326.945312 127.152344 340.6875 150.539062 340.6875 C 171.753906 340.683594 182.84375 330.558594 182.84375 307.414062 Z M 182.84375 307.414062 " style=" stroke:none;fill-rule:nonzero;fill:rgb(93.333333%,33.72549%,27.45098%);fill-opacity:1;" />
<path d="M 225.996094 306.449219 L 225.996094 233.882812 C 225.996094 195.550781 248.65625 181.328125 277.828125 181.328125 C 307 181.328125 329.902344 195.550781 329.902344 233.882812 L 329.902344 306.449219 C 329.902344 344.785156 307 359.007812 277.828125 359.007812 C 248.65625 359.007812 225.996094 344.785156 225.996094 306.449219 Z M 309.652344 233.882812 C 309.652344 210.496094 297.597656 199.648438 277.828125 199.648438 C 258.058594 199.648438 246.246094 210.496094 246.246094 233.882812 L 246.246094 306.449219 C 246.246094 329.835938 258.058594 340.683594 277.828125 340.683594 C 297.597656 340.683594 309.652344 329.835938 309.652344 306.449219 Z M 309.652344 233.882812 " style=" stroke:none;fill-rule:nonzero;fill:rgb(93.333333%,33.72549%,27.45098%);fill-opacity:1;" />
<path d="M 319.558594 493.742188 L 343.53125 432.636719 L 372.652344 444.058594 L 348.675781 505.167969 C 346.503906 510.699219 340.261719 513.425781 334.730469 511.253906 L 325.644531 507.6875 C 320.109375 505.519531 317.386719 499.273438 319.558594 493.742188 Z M 319.558594 493.742188 " style=" stroke:none;fill-rule:nonzero;fill:rgb(20.392157%,29.019608%,36.470588%);fill-opacity:1;" />
<path d="M 423.625 444.058594 L 452.742188 432.636719 L 476.71875 493.742188 C 478.886719 499.273438 476.160156 505.519531 470.632812 507.6875 L 461.542969 511.253906 C 456.011719 513.421875 449.769531 510.699219 447.597656 505.167969 Z M 423.625 444.058594 " style=" stroke:none;fill-rule:nonzero;fill:rgb(20.392157%,29.019608%,36.470588%);fill-opacity:1;" />
<path d="M 504.367188 386.675781 C 504.367188 445.34375 456.808594 492.90625 398.136719 492.90625 C 339.464844 492.90625 291.90625 445.34375 291.90625 386.675781 C 291.90625 328.003906 339.464844 280.441406 398.136719 280.441406 C 456.808594 280.441406 504.367188 328.003906 504.367188 386.675781 Z M 504.367188 386.675781 " style=" stroke:none;fill-rule:nonzero;fill:rgb(52.941176%,85.882353%,99.215686%);fill-opacity:1;" />
<path d="M 398.136719 280.441406 C 388.914062 280.441406 379.96875 281.617188 371.4375 283.828125 C 417.183594 295.671875 450.96875 337.226562 450.96875 386.675781 C 450.96875 436.121094 417.183594 477.679688 371.4375 489.519531 C 379.96875 491.730469 388.914062 492.90625 398.136719 492.90625 C 456.808594 492.90625 504.367188 445.34375 504.367188 386.675781 C 504.367188 328.003906 456.808594 280.441406 398.136719 280.441406 Z M 398.136719 280.441406 " style=" stroke:none;fill-rule:nonzero;fill:rgb(34.901961%,76.078431%,91.372549%);fill-opacity:1;" />
<path d="M 475.4375 386.675781 C 475.4375 429.367188 440.828125 463.976562 398.136719 463.976562 C 355.445312 463.976562 320.835938 429.367188 320.835938 386.675781 C 320.835938 343.980469 355.445312 309.371094 398.136719 309.371094 C 440.828125 309.371094 475.4375 343.980469 475.4375 386.675781 Z M 475.4375 386.675781 " style=" stroke:none;fill-rule:nonzero;fill:rgb(94.901961%,94.901961%,94.901961%);fill-opacity:1;" />
<path d="M 398.136719 309.371094 C 388.636719 309.371094 379.542969 311.09375 371.136719 314.230469 C 400.515625 325.183594 421.441406 353.480469 421.441406 386.675781 C 421.441406 419.867188 400.515625 448.164062 371.136719 459.117188 C 379.542969 462.253906 388.636719 463.976562 398.136719 463.976562 C 440.828125 463.976562 475.4375 429.367188 475.4375 386.671875 C 475.4375 343.980469 440.828125 309.371094 398.136719 309.371094 Z M 398.136719 309.371094 " style=" stroke:none;fill-rule:nonzero;fill:rgb(85.882353%,85.098039%,81.960784%);fill-opacity:1;" />
<path d="M 417.453125 413.71875 C 415.476562 413.71875 413.5 412.964844 411.992188 411.453125 L 392.675781 392.136719 C 391.226562 390.6875 390.410156 388.722656 390.410156 386.671875 L 390.410156 339.898438 C 390.410156 335.628906 393.871094 332.171875 398.136719 332.171875 C 402.40625 332.171875 405.863281 335.628906 405.863281 339.898438 L 405.863281 383.472656 L 422.917969 400.527344 C 425.9375 403.542969 425.9375 408.433594 422.917969 411.453125 C 421.410156 412.964844 419.429688 413.71875 417.453125 413.71875 Z M 417.453125 413.71875 " style=" stroke:none;fill-rule:nonzero;fill:rgb(59.215686%,70.588235%,98.823529%);fill-opacity:1;" />
<path d="M 425.621094 468.515625 L 10.457031 468.515625 C 4.683594 468.515625 0 463.835938 0 458.058594 L 0 49.109375 C 0 43.335938 4.679688 38.652344 10.457031 38.652344 L 425.621094 38.652344 C 431.394531 38.652344 436.078125 43.335938 436.078125 49.109375 L 436.078125 458.0625 C 436.078125 463.835938 431.394531 468.515625 425.621094 468.515625 Z M 425.621094 468.515625 " style=" stroke:none;fill-rule:nonzero;fill:rgb(80.392157%,83.921569%,87.45098%);fill-opacity:1;" />
<path d="M 425.621094 38.652344 L 382.675781 38.652344 L 382.675781 468.515625 L 425.621094 468.515625 C 431.394531 468.515625 436.078125 463.835938 436.078125 458.0625 L 436.078125 49.109375 C 436.078125 43.335938 431.394531 38.652344 425.621094 38.652344 Z M 425.621094 38.652344 " style=" stroke:none;fill-rule:nonzero;fill:rgb(68.235294%,73.72549%,76.862745%);fill-opacity:1;" />
<path d="M 53.402344 405.855469 L 53.402344 125.527344 L 382.675781 125.527344 L 382.675781 405.855469 C 382.675781 410.945312 378.546875 415.070312 373.457031 415.070312 L 62.621094 415.070312 C 57.527344 415.074219 53.402344 410.945312 53.402344 405.855469 Z M 53.402344 405.855469 " style=" stroke:none;fill-rule:nonzero;fill:rgb(94.901961%,94.901961%,94.901961%);fill-opacity:1;" />
<path d="M 329.273438 125.527344 L 329.273438 405.855469 C 329.273438 410.945312 325.144531 415.074219 320.054688 415.074219 L 373.457031 415.074219 C 378.550781 415.074219 382.675781 410.945312 382.675781 405.855469 L 382.675781 125.527344 Z M 329.273438 125.527344 " style=" stroke:none;fill-rule:nonzero;fill:rgb(85.882353%,85.098039%,81.960784%);fill-opacity:1;" />
<path d="M 425.621094 38.652344 L 10.457031 38.652344 C 4.683594 38.652344 0 43.335938 0 49.109375 L 0 125.527344 L 436.078125 125.527344 L 436.078125 49.109375 C 436.078125 43.335938 431.394531 38.652344 425.621094 38.652344 Z M 425.621094 38.652344 " style=" stroke:none;fill-rule:nonzero;fill:rgb(93.333333%,33.72549%,27.45098%);fill-opacity:1;" />
<path d="M 425.621094 38.65625 L 382.675781 38.65625 L 382.675781 125.53125 L 436.078125 125.53125 L 436.078125 49.109375 C 436.078125 43.335938 431.394531 38.65625 425.621094 38.65625 Z M 425.621094 38.65625 " style=" stroke:none;fill-rule:nonzero;fill:rgb(84.705882%,24.313725%,22.745098%);fill-opacity:1;" />
<path d="M 73.597656 77.308594 C 61.570312 77.308594 51.824219 67.5625 51.824219 55.539062 L 51.824219 21.769531 C 51.824219 9.746094 61.574219 0 73.597656 0 C 85.621094 0 95.367188 9.746094 95.367188 21.769531 L 95.367188 55.539062 C 95.367188 67.5625 85.621094 77.308594 73.597656 77.308594 Z M 73.597656 77.308594 " style=" stroke:none;fill-rule:nonzero;fill:rgb(96.078431%,70.980392%,33.72549%);fill-opacity:1;" />
<path d="M 169.890625 77.308594 C 157.867188 77.308594 148.121094 67.5625 148.121094 55.539062 L 148.121094 21.769531 C 148.121094 9.746094 157.867188 0 169.890625 0 C 181.914062 0 191.660156 9.746094 191.660156 21.769531 L 191.660156 55.539062 C 191.660156 67.5625 181.914062 77.308594 169.890625 77.308594 Z M 169.890625 77.308594 " style=" stroke:none;fill-rule:nonzero;fill:rgb(96.078431%,70.980392%,33.72549%);fill-opacity:1;" />
<path d="M 266.1875 77.308594 C 254.160156 77.308594 244.414062 67.5625 244.414062 55.539062 L 244.414062 21.769531 C 244.414062 9.746094 254.164062 0 266.1875 0 C 278.210938 0 287.957031 9.746094 287.957031 21.769531 L 287.957031 55.539062 C 287.957031 67.5625 278.210938 77.308594 266.1875 77.308594 Z M 266.1875 77.308594 " style=" stroke:none;fill-rule:nonzero;fill:rgb(96.078431%,70.980392%,33.72549%);fill-opacity:1;" />
<path d="M 362.480469 77.308594 C 350.457031 77.308594 340.710938 67.5625 340.710938 55.539062 L 340.710938 21.769531 C 340.710938 9.746094 350.457031 0 362.480469 0 C 374.503906 0 384.253906 9.746094 384.253906 21.769531 L 384.253906 55.539062 C 384.253906 67.5625 374.503906 77.308594 362.480469 77.308594 Z M 362.480469 77.308594 " style=" stroke:none;fill-rule:nonzero;fill:rgb(96.078431%,70.980392%,33.72549%);fill-opacity:1;" />
<path d="M 182.84375 307.414062 L 182.84375 302.835938 C 182.84375 281.859375 170.066406 273.421875 150.539062 273.421875 C 145.476562 273.421875 143.546875 269.324219 143.546875 264.984375 C 143.546875 260.886719 145.476562 256.546875 150.539062 256.546875 C 167.65625 256.546875 178.503906 250.757812 178.503906 227.613281 C 178.503906 208.085938 169.585938 199.40625 151.503906 199.40625 C 128.839844 199.40625 123.296875 212.425781 123.296875 222.550781 C 123.296875 227.855469 120.644531 231.472656 113.652344 231.472656 C 104.972656 231.472656 103.046875 229.0625 103.046875 221.105469 C 103.046875 206.640625 112.929688 181.328125 151.984375 181.328125 C 178.988281 181.328125 198.035156 192.65625 198.035156 224 C 198.035156 244.972656 189.835938 259.199219 178.507812 264.503906 C 192.730469 270.289062 203.097656 281.859375 203.097656 302.835938 L 203.097656 307.414062 C 203.097656 345.023438 179.46875 359.007812 150.539062 359.007812 C 114.859375 359.007812 99.1875 336.347656 99.1875 318.023438 C 99.1875 310.550781 101.839844 308.621094 108.589844 308.621094 C 116.785156 308.621094 118.957031 311.515625 118.957031 316.578125 C 118.957031 326.945312 127.152344 340.6875 150.539062 340.6875 C 171.753906 340.683594 182.84375 330.558594 182.84375 307.414062 Z M 182.84375 307.414062 " style=" stroke:none;fill-rule:nonzero;fill:rgb(93.333333%,33.72549%,27.45098%);fill-opacity:1;" />
<path d="M 225.996094 306.449219 L 225.996094 233.882812 C 225.996094 195.550781 248.65625 181.328125 277.828125 181.328125 C 307 181.328125 329.902344 195.550781 329.902344 233.882812 L 329.902344 306.449219 C 329.902344 344.785156 307 359.007812 277.828125 359.007812 C 248.65625 359.007812 225.996094 344.785156 225.996094 306.449219 Z M 309.652344 233.882812 C 309.652344 210.496094 297.597656 199.648438 277.828125 199.648438 C 258.058594 199.648438 246.246094 210.496094 246.246094 233.882812 L 246.246094 306.449219 C 246.246094 329.835938 258.058594 340.683594 277.828125 340.683594 C 297.597656 340.683594 309.652344 329.835938 309.652344 306.449219 Z M 309.652344 233.882812 " style=" stroke:none;fill-rule:nonzero;fill:rgb(93.333333%,33.72549%,27.45098%);fill-opacity:1;" />
<path d="M 319.558594 493.742188 L 343.53125 432.636719 L 372.652344 444.058594 L 348.675781 505.167969 C 346.503906 510.699219 340.261719 513.425781 334.730469 511.253906 L 325.644531 507.6875 C 320.109375 505.519531 317.386719 499.273438 319.558594 493.742188 Z M 319.558594 493.742188 " style=" stroke:none;fill-rule:nonzero;fill:rgb(20.392157%,29.019608%,36.470588%);fill-opacity:1;" />
<path d="M 423.625 444.058594 L 452.742188 432.636719 L 476.71875 493.742188 C 478.886719 499.273438 476.160156 505.519531 470.632812 507.6875 L 461.542969 511.253906 C 456.011719 513.421875 449.769531 510.699219 447.597656 505.167969 Z M 423.625 444.058594 " style=" stroke:none;fill-rule:nonzero;fill:rgb(20.392157%,29.019608%,36.470588%);fill-opacity:1;" />
<path d="M 504.367188 386.675781 C 504.367188 445.34375 456.808594 492.90625 398.136719 492.90625 C 339.464844 492.90625 291.90625 445.34375 291.90625 386.675781 C 291.90625 328.003906 339.464844 280.441406 398.136719 280.441406 C 456.808594 280.441406 504.367188 328.003906 504.367188 386.675781 Z M 504.367188 386.675781 " style=" stroke:none;fill-rule:nonzero;fill:rgb(52.941176%,85.882353%,99.215686%);fill-opacity:1;" />
<path d="M 398.136719 280.441406 C 388.914062 280.441406 379.96875 281.617188 371.4375 283.828125 C 417.183594 295.671875 450.96875 337.226562 450.96875 386.675781 C 450.96875 436.121094 417.183594 477.679688 371.4375 489.519531 C 379.96875 491.730469 388.914062 492.90625 398.136719 492.90625 C 456.808594 492.90625 504.367188 445.34375 504.367188 386.675781 C 504.367188 328.003906 456.808594 280.441406 398.136719 280.441406 Z M 398.136719 280.441406 " style=" stroke:none;fill-rule:nonzero;fill:rgb(34.901961%,76.078431%,91.372549%);fill-opacity:1;" />
<path d="M 475.4375 386.675781 C 475.4375 429.367188 440.828125 463.976562 398.136719 463.976562 C 355.445312 463.976562 320.835938 429.367188 320.835938 386.675781 C 320.835938 343.980469 355.445312 309.371094 398.136719 309.371094 C 440.828125 309.371094 475.4375 343.980469 475.4375 386.675781 Z M 475.4375 386.675781 " style=" stroke:none;fill-rule:nonzero;fill:rgb(94.901961%,94.901961%,94.901961%);fill-opacity:1;" />
<path d="M 398.136719 309.371094 C 388.636719 309.371094 379.542969 311.09375 371.136719 314.230469 C 400.515625 325.183594 421.441406 353.480469 421.441406 386.675781 C 421.441406 419.867188 400.515625 448.164062 371.136719 459.117188 C 379.542969 462.253906 388.636719 463.976562 398.136719 463.976562 C 440.828125 463.976562 475.4375 429.367188 475.4375 386.671875 C 475.4375 343.980469 440.828125 309.371094 398.136719 309.371094 Z M 398.136719 309.371094 " style=" stroke:none;fill-rule:nonzero;fill:rgb(85.882353%,85.098039%,81.960784%);fill-opacity:1;" />
<path d="M 417.453125 413.71875 C 415.476562 413.71875 413.5 412.964844 411.992188 411.453125 L 392.675781 392.136719 C 391.226562 390.6875 390.410156 388.722656 390.410156 386.671875 L 390.410156 339.898438 C 390.410156 335.628906 393.871094 332.171875 398.136719 332.171875 C 402.40625 332.171875 405.863281 335.628906 405.863281 339.898438 L 405.863281 383.472656 L 422.917969 400.527344 C 425.9375 403.542969 425.9375 408.433594 422.917969 411.453125 C 421.410156 412.964844 419.429688 413.71875 417.453125 413.71875 Z M 417.453125 413.71875 " style=" stroke:none;fill-rule:nonzero;fill:rgb(59.215686%,70.588235%,98.823529%);fill-opacity:1;" />
</g>
</svg>